PathFileType	4	(X/Y/Z)	/Users/niels/Desktop/University/Third Semester/Perception and Action/Exam/Gymnastics Motion Tracking/Code for Gym Tracking/Analyzed Data/Webcam_Backflip/id6_2_baseline_Sports2D/id6_2_baseline_Sports2D_px_person00.trc
DataRate	CameraRate	NumFrames	NumMarkers	Units	OrigDataRate	OrigDataStartFrame	OrigNumFrames
29.810126582278482	29.810126582278482	10	22	m	29.810126582278482	98	158
Frame#	Time	Hip			RHip			RKnee			RAnkle			RBigToe			RSmallToe			RHeel			LHip			LKnee			LAnkle			LBigToe			LSmallToe			LHeel			Neck			Head			Nose			RShoulder			RElbow			RWrist			LShoulder			LElbow			LWrist		
		X1	Y1	Z1	X2	Y2	Z2	X3	Y3	Z3	X4	Y4	Z4	X5	Y5	Z5	X6	Y6	Z6	X7	Y7	Z7	X8	Y8	Z8	X9	Y9	Z9	X10	Y10	Z10	X11	Y11	Z11	X12	Y12	Z12	X13	Y13	Z13	X14	Y14	Z14	X15	Y15	Z15	X16	Y16	Z16	X17	Y17	Z17	X18	Y18	Z18	X19	Y19	Z19	X20	Y20	Z20	X21	Y21	Z21	X22	Y22	Z22
98	3.2874734607218685	0.8229171698960639	-0.49476069784594506	0.0	0.8212839453600367	-0.49540972807603784	0.0	0.8515098065118494	-0.5936274169252986	0.0	0.8257497510935539	-0.6920753635802428	0.0	0.8554293864917848	-0.729070777669813	0.0	0.8467784365560198	-0.729111837434139	0.0	0.8134085390861491	-0.7030006182266013	0.0	0.8227385682750108	-0.49138534312166987	0.0	0.8476035724296894	-0.5946790897139046	0.0	0.8265742945536722	-0.6883709969472133	0.0	0.8552187171254229	-0.7223958602943247	0.0	0.853705353512791	-0.716345223883506	0.0	0.8141630500817503	-0.6979663734215927	0.0	0.8554358818035523	-0.3725183803155388	0.0	0.8853654768314894	-0.3077994595506723	0.0	0.8896698096392583	-0.3383029345713934	0.0	0.8526800413803508	-0.3777347147125938	0.0	0.9079912890975766	-0.34328668804706225	0.0	0.9523858660614694	-0.30540199647651656	0.0	0.8516811910436098	-0.3739055959435674	0.0	0.905949044506997	-0.34054729390282423	0.0	0.9550574860325477	-0.30347370682962904	0.0
99	3.3210191082802547	0.8253163726820612	-0.49120140113576327	0.0	0.8249585618821657	-0.49188849847944294	0.0	0.8488226839824803	-0.5908183716680082	0.0	0.8302108427849735	-0.691147170466539	0.0	0.8620854305620854	-0.7269521475537533	0.0	0.8537323348591203	-0.7272999799498473	0.0	0.8192909273121984	-0.7031468559731777	0.0	0.8248551266524426	-0.48763342777964175	0.0	0.8452515484238291	-0.5922314082629825	0.0	0.8300844480902716	-0.6877938469745953	0.0	0.860487509163981	-0.7207375807246583	0.0	0.8582649044288521	-0.71514114923013	0.0	0.8185130158554265	-0.6976397316316137	0.0	0.8559917800445949	-0.36598470813161477	0.0	0.8815959376664749	-0.29997816658861826	0.0	0.8893253567003251	-0.33005196923411123	0.0	0.8541362201226687	-0.37196122208236115	0.0	0.9088778435934722	-0.3359137168266249	0.0	0.9514932783416109	-0.29532976283748075	0.0	0.8517575216470761	-0.3679838724232729	0.0	0.9065585900573738	-0.33316332755365236	0.0	0.9535914829243836	-0.2941444921948409	0.0
100	3.3545647558386413	0.827547123934934	-0.4914742201621451	0.0	0.8282128727813737	-0.49225423695741616	0.0	0.8469504290293862	-0.5915740431982471	0.0	0.8339587112389704	-0.6930133564597887	0.0	0.8679349440313707	-0.7272001757272059	0.0	0.8598754849421592	-0.7279117319422982	0.0	0.824184172941435	-0.7061860650351588	0.0	0.8269361317214562	-0.48779840199519914	0.0	0.8438618494853487	-0.5931110321934773	0.0	0.8334078386139898	-0.6898538075869934	0.0	0.865511741536861	-0.7215625940413055	0.0	0.8625305487815417	-0.7162610016771912	0.0	0.8226534931009546	-0.6999969735811915	0.0	0.8567509069230831	-0.3632455106802757	0.0	0.8793619878263597	-0.29669892927409597	0.0	0.8890340733932758	-0.3265756223767305	0.0	0.8555926818950355	-0.3702176552850496	0.0	0.9104112931254704	-0.3326111217343642	0.0	0.9512965705080191	-0.28988639184488685	0.0	0.8518640393571104	-0.3660820107525089	0.0	0.9075603381314713	-0.3305003598167738	0.0	0.9521788716866502	-0.2897573957012322	0.0
101	3.3881104033970275	0.8296781768795564	-0.49558035030142783	0.0	0.831011595870884	-0.4965335077346147	0.0	0.8460038492417196	-0.5961565242625796	0.0	0.8366813440343653	-0.6978899301189879	0.0	0.8723860148992605	-0.7302745643934072	0.0	0.8646453725643689	-0.7313421267803506	0.0	0.8276781378181377	-0.7121787957504279	0.0	0.8291526641954625	-0.49190333454129365	0.0	0.8434120808164441	-0.5975755972919833	0.0	0.8360584486798517	-0.694720058938082	0.0	0.8697456753063674	-0.7251654280853483	0.0	0.8660867361652579	-0.71985355098619	0.0	0.8259621833416366	-0.7051355817275604	0.0	0.8574860588719426	-0.3646007095994252	0.0	0.8787844392244722	-0.29807256338176774	0.0	0.8885658016937783	-0.328124056709436	0.0	0.856839339365333	-0.37263870885862244	0.0	0.9122115681170032	-0.3331836588173811	0.0	0.9514284402488588	-0.28884663222068657	0.0	0.8519322921076505	-0.36838209184599435	0.0	0.9081012854558035	-0.33238005187720265	0.0	0.9492344683450875	-0.2902917793321269	0.0
102	3.421656050955414	0.8318242981809403	-0.5035518621530198	0.0	0.8334668834467356	-0.5046757115280006	0.0	0.8459126917878749	-0.604691126481798	0.0	0.838100106036255	-0.7059749430403743	0.0	0.874912224364986	-0.7364664519978584	0.0	0.8675095876104896	-0.7377864619227741	0.0	0.82955453912245	-0.7211395275462794	0.0	0.8316784184137542	-0.4999768361760831	0.0	0.8437465537255899	-0.605790882655369	0.0	0.8376140280584965	-0.7026046015757352	0.0	0.8726577234089712	-0.7317721058363645	0.0	0.8684758749142241	-0.7261707940757315	0.0	0.8279194003658806	-0.7132172846880089	0.0	0.8579932408753645	-0.3702607359631336	0.0	0.8794785443685125	-0.3040653419323209	0.0	0.8877597999941641	-0.3346362100470366	0.0	0.8577269581075361	-0.3793105014662464	0.0	0.9137152894744478	-0.33761468515479476	0.0	0.9512067654275645	-0.292007956738037	0.0	0.8519446679911694	-0.3749678437132934	0.0	0.9072505783416488	-0.33849255279484985	0.0	0.9424009343981766	-0.2955989919510707	0.0
103	3.4552016985138003	0.8341062172914419	-0.5153778462474848	0.0	0.8357734912405097	-0.5165128205678136	0.0	0.846468952290021	-0.6169852248008943	0.0	0.8380735046122333	-0.7172677657026583	0.0	0.8751242754369308	-0.7456940550592875	0.0	0.8680393764322788	-0.7470937235906425	0.0	0.8298210785161036	-0.7329398246810858	0.0	0.8345919196243952	-0.5119354587245354	0.0	0.8446264078362109	-0.6176518967026052	0.0	0.8378441153836448	-0.7136127407622161	0.0	0.873799959079848	-0.7413654237200119	0.0	0.8692466974797959	-0.735344750817963	0.0	0.8283069717626973	-0.7243118356937316	0.0	0.8582215340154165	-0.380202785030636	0.0	0.8808279679325145	-0.31441872946174565	0.0	0.886669348467095	-0.3456928421170234	0.0	0.8581981491590562	-0.3901276894262627	0.0	0.9143484244033769	-0.34592566523222373	0.0	0.9498814747072625	-0.2991517641664921	0.0	0.8518800728857066	-0.3856962570512644	0.0	0.9041606780397857	-0.3483973988627288	0.0	0.9290547102739919	-0.3053219742743937	0.0
104	3.488747346072187	0.8366047746966335	-0.5308742153588989	0.0	0.8381199975960698	-0.5317243235113722	0.0	0.8473935125697409	-0.6325532302538645	0.0	0.8367761479061298	-0.7314484122258965	0.0	0.8729275700510705	-0.7575447902331348	0.0	0.8661212667846875	-0.7588442425371557	0.0	0.8287766927953616	-0.7471748193020539	0.0	0.8377679145368739	-0.5274788622470646	0.0	0.8457608594080348	-0.6327828096887425	0.0	0.8367996890779669	-0.7275918214511772	0.0	0.8728843674265352	-0.7536831317317301	0.0	0.8680869111100282	-0.7472931068764522	0.0	0.8272780344528257	-0.7381962988515535	0.0	0.8582960528274236	-0.39413490555537867	0.0	0.8820479690410785	-0.32860194244391505	0.0	0.8854779171157049	-0.36056316448901377	0.0	0.8583167943326985	-0.4046607301578971	0.0	0.9137408159111242	-0.35799634842994094	0.0	0.9468976151392561	-0.30995360824065443	0.0	0.851728751431737	-0.4001574475456943	0.0	0.8982578474275118	-0.3615503829485117	0.0	0.9074190251318908	-0.3188843212348253	0.0
105	3.522292993630573	0.8393085279160132	-0.5494741690196561	0.0	0.8406030980369716	-0.5497113967814278	0.0	0.8484061121976566	-0.6506741567224565	0.0	0.8347252469424972	-0.7478808695937768	0.0	0.8687298622281725	-0.7714266626077502	0.0	0.86218963780311	-0.7725051369884768	0.0	0.8270002889650936	-0.7631673273188371	0.0	0.8408998288133874	-0.5459438852137244	0.0	0.8468601152597195	-0.650548932542655	0.0	0.8348621166159689	-0.7440417451487025	0.0	0.8699749872093119	-0.7682755909543997	0.0	0.8650679580252109	-0.7617085867973465	0.0	0.8253382901536465	-0.754305498297477	0.0	0.858416161223209	-0.41142029641762723	0.0	0.8824381593662073	-0.3458041251998952	0.0	0.8843823332000922	-0.37827453623169816	0.0	0.8582592980937922	-0.42208104801461227	0.0	0.9118942454178214	-0.37337455231581734	0.0	0.9421590506330104	-0.3238238523837092	0.0	0.8515326043965133	-0.41761640905570535	0.0	0.889606139457151	-0.3772590990351433	0.0	0.8786704443856009	-0.33543613500655617	0.0
106	3.5558386411889598	0.8421252673809869	-0.5700204358998479	0.0	0.8432006150813546	-0.5694414743146468	0.0	0.8492910722295307	-0.67030390700152	0.0	0.8325616178738656	-0.7656215504761871	0.0	0.8634665356159699	-0.7865813356137841	0.0	0.8572224646905602	-0.7874363877044235	0.0	0.8251598810098477	-0.7800554192482779	0.0	0.8437142341420707	-0.5661723029309794	0.0	0.8477398805186529	-0.6699448301172053	0.0	0.8326761645271183	-0.762037542664058	0.0	0.8656696829292981	-0.7843894901572825	0.0	0.8607977227696618	-0.7779234854138689	0.0	0.8231783195908022	-0.7717645112746694	0.0	0.8587814222628153	-0.4309378482220952	0.0	0.881934895527719	-0.36490895481723307	0.0	0.8836355745276135	-0.3976321642780194	0.0	0.85827298658448	-0.44115044521832686	0.0	0.9092028659240511	-0.39111232034090243	0.0	0.9361813843734759	-0.3397608284216041	0.0	0.8514425495543829	-0.43691619199570947	0.0	0.8793771159791807	-0.39462619772120394	0.0	0.8485781620141503	-0.3537618896236458	0.0
107	3.589384288747346	0.8449728798222744	-0.5907210243960842	0.0	0.8458397385639932	-0.5893886302965212	0.0	0.8499445924065857	-0.6899487026104223	0.0	0.8307800752797443	-0.7833306057225617	0.0	0.8583128439362545	-0.8019295446778734	0.0	0.8524021096053158	-0.8026901328000462	0.0	0.8237279482290558	-0.7967373392331525	0.0	0.8461495680005302	-0.5865078268573067	0.0	0.8483682454398946	-0.6894522079404372	0.0	0.8308764248926296	-0.7801362873136494	0.0	0.8609858417090982	-0.800744380801151	0.0	0.8562502242032898	-0.7946903394176142	0.0	0.8213782072677117	-0.7893139004448075	0.0	0.8595556895245303	-0.4510468013964522	0.0	0.8811399459538284	-0.38444654686754837	0.0	0.8835548504637087	-0.41720313043231927	0.0	0.8586119777794644	-0.46030263239430863	0.0	0.9063438348349752	-0.409712268409291	0.0	0.9300377829345801	-0.3563766028086138	0.0	0.8517232322451563	-0.4564898287547834	0.0	0.870066382981492	-0.4125251163038692	0.0	0.8255907918102264	-0.37235632129375423	0.0
